# xmcd CD database file
#
# Track frame offsets:
#	150
#	21961
#	45649
#	57820
#	79506
#	95330
#	112068
#	133154
#	164345
#	186936
#	210252
#	235683
#	254179
#	271750
#
# Disc length: 3926 seconds
#
# Revision: 0
# Processed by: cddbd v1.5.1PL2 Copyright (c) Steve Scherf et al.
# Submitted via: CDex 1.51
#
DISCID=bd0f540e
DTITLE=Ricky Lee Jones - Naked songs (LIVE)
DYEAR=1900
DGENRE=Jazz
TTITLE0=The Horses
TTITLE1=Weasel And The White Boys Cool
TTITLE2=Altar Boy
TTITLE3=It Must be Love
TTITLE4=Young Blood
TTITLE5=Skeletons
TTITLE6=Magazine
TTITLE7=Living It Up
TTITLE8=We Belong Together
TTITLE9=Coolsville
TTITLE10=Flying Cowboys
TTITLE11=Steward's Coat
TTITLE12=Chuck E.'s in Love
TTITLE13=Autumn Leaves
EXTD=
EXTT0=
EXTT1=
EXTT2=
EXTT3=
EXTT4=
EXTT5=
EXTT6=
EXTT7=
EXTT8=
EXTT9=
EXTT10=
EXTT11=
EXTT12=
EXTT13=
PLAYORDER=
